<svg xmlns="http://www.w3.org/2000/svg" viewBox="0 0 600 1101" role="img" aria-labelledby="t d">
  <title id="t">An ad beside your new image</title>
  <desc id="d">While ChatGPT generates an image, a labeled image ad appears in a separate spot from your image. It shows the product in use or a related experience, framed as inspiration.</desc>
  <rect width="600" height="1101" rx="20" fill="#FFFFFF"/>
  <g font-family="Pretendard, 'Apple SD Gothic Neo', 'Malgun Gothic', 'Noto Sans KR', sans-serif">
    <text x="32" y="66" font-size="34" font-weight="800" fill="#111111" text-anchor="start">An ad beside your new image</text>
    <text x="32" y="99" font-size="21" font-weight="400" fill="#6B6B6B" text-anchor="start">Based on the announcement; not the real screen.</text>
    <rect x="32" y="131" width="536" height="760" rx="16" fill="#FFFFFF" stroke="#111111" stroke-width="2"/>
    <line x1="32" y1="171" x2="568" y2="171" stroke="#D9D9D9" stroke-width="1.5"/>
    <circle cx="56" cy="151" r="5" fill="#D9D9D9"/>
    <circle cx="74" cy="151" r="5" fill="#D9D9D9"/>
    <circle cx="92" cy="151" r="5" fill="#D9D9D9"/>
    <text x="300.0" y="157" font-size="16" font-weight="700" fill="#6B6B6B" text-anchor="middle">ChatGPT</text>
    <rect x="128.95999999999998" y="191" width="419.04" height="40" rx="20.0" fill="#111111"/>
    <text x="146.95999999999998" y="214" font-size="18" font-weight="400" fill="#FFFFFF" text-anchor="start">A campsite at dusk, with warm lighting</text>
    <rect x="52" y="253" width="496" height="300" rx="12" fill="#F2F2F2" stroke="#111111" stroke-width="1.5"/>
    <path d="M52 463.0L200.79999999999998 358.0L300.0 418.0L409.12 343.0L548 448.0V541Q548 553 536 553H64Q52 553 52 541Z" fill="#D9D9D9"/>
    <path d="M240.48 517.0L290.08 439.0L339.68 517.0Z" fill="#111111"/>
    <circle cx="448.8" cy="313.0" r="21.000000000000004" fill="#FFFFFF" stroke="#111111" stroke-width="1.5"/>
    <text x="68" y="283" font-size="18" font-weight="700" fill="#111111" text-anchor="start">The image I asked for</text>
    <rect x="52" y="589" width="496" height="250" rx="12" fill="#FFFFFF" stroke="#111111" stroke-width="1.5" stroke-dasharray="7 5"/>
    <rect x="66" y="603" width="46.32" height="30" rx="15.0" fill="#111111"/>
    <text x="78" y="623" font-size="16" font-weight="800" fill="#FFFFFF" text-anchor="start">Ad</text>
    <rect x="66" y="647" width="468" height="90.0" rx="8" fill="#F2F2F2"/>
    <rect x="282.0" y="669.5" width="36" height="49.50000000000001" rx="8" fill="#FFFFFF" stroke="#111111" stroke-width="2"/>
    <path d="M290.0 669.5Q300.0 651.5 310.0 669.5" fill="none" stroke="#111111" stroke-width="2"/>
    <text x="66" y="769.0" font-size="18" font-weight="700" fill="#111111" text-anchor="start">Brand lantern</text>
    <text x="66" y="795.0" font-size="16" font-weight="400" fill="#444444" text-anchor="start">The product in use,</text>
    <text x="66" y="821.0" font-size="16" font-weight="400" fill="#444444" text-anchor="start">shown as &#x27;inspiration&#x27;</text>
    <circle cx="544" cy="593" r="15" fill="#111111"/><text x="544" y="599.12" font-size="17" font-weight="800" fill="#FFFFFF" text-anchor="middle">1</text>
    <circle cx="300.0" cy="571" r="15" fill="#111111"/><text x="300.0" y="577.12" font-size="17" font-weight="800" fill="#FFFFFF" text-anchor="middle">2</text>
    <circle cx="47" cy="923.8" r="14" fill="#111111"/><text x="47" y="929.56" font-size="16" font-weight="800" fill="#FFFFFF" text-anchor="middle">1</text>
    <text x="72" y="931" font-size="20" font-weight="400" fill="#444444" text-anchor="start">Clearly labeled as an ad</text>
    <circle cx="47" cy="961.8" r="14" fill="#111111"/><text x="47" y="967.56" font-size="16" font-weight="800" fill="#FFFFFF" text-anchor="middle">2</text>
    <text x="72" y="969" font-size="20" font-weight="400" fill="#444444" text-anchor="start">Kept apart from your image</text>
    <circle cx="47" cy="999.8" r="14" fill="#111111"/><text x="47" y="1005.56" font-size="16" font-weight="800" fill="#FFFFFF" text-anchor="middle">3</text>
    <text x="72" y="1007" font-size="20" font-weight="400" fill="#444444" text-anchor="start">Doesn&#x27;t change the answer</text>
    <line x1="32" y1="1041" x2="568" y2="1041" stroke="#D9D9D9" stroke-width="1"/>
    <text x="32" y="1069" font-size="17" font-weight="400" fill="#6B6B6B" text-anchor="start">Sources: OpenAI (Oct 5, 2026), TechCrunch</text>
  </g>
</svg>
